<mxfile host="app.diagrams.net" modified="2024-05-29T02:32:16.636Z" agent="Mozilla/5.0 (Windows NT 10.0; Win64; x64) AppleWebKit/537.36 (KHTML, like Gecko) Chrome/125.0.0.0 Safari/537.36" etag="GwxcN7nP3hZYsh0ITJ9E" version="24.4.6" type="github">
  <diagram id="C5RBs43oDa-KdzZeNtuy" name="Page-1">
    <mxGraphModel dx="830" dy="1654" grid="1" gridSize="10" guides="1" tooltips="1" connect="1" arrows="1" fold="1" page="1" pageScale="1" pageWidth="827" pageHeight="1169" math="0" shadow="0">
      <root>
        <mxCell id="WIyWlLk6GJQsqaUBKTNV-0" />
        <mxCell id="WIyWlLk6GJQsqaUBKTNV-1" parent="WIyWlLk6GJQsqaUBKTNV-0" />
        <mxCell id="7QUO8kgN8gRevv4-HPs5-3" value="" style="edgeStyle=orthogonalEdgeStyle;rounded=0;orthogonalLoop=1;jettySize=auto;html=1;" edge="1" parent="WIyWlLk6GJQsqaUBKTNV-1" source="WIyWlLk6GJQsqaUBKTNV-3" target="7QUO8kgN8gRevv4-HPs5-2">
          <mxGeometry relative="1" as="geometry" />
        </mxCell>
        <mxCell id="WIyWlLk6GJQsqaUBKTNV-3" value="初始化日志，启动日志写入线程" style="rounded=1;whiteSpace=wrap;html=1;fontSize=12;glass=0;strokeWidth=1;shadow=0;" parent="WIyWlLk6GJQsqaUBKTNV-1" vertex="1">
          <mxGeometry x="160" y="80" width="120" height="40" as="geometry" />
        </mxCell>
        <mxCell id="7QUO8kgN8gRevv4-HPs5-1" value="" style="edgeStyle=orthogonalEdgeStyle;rounded=0;orthogonalLoop=1;jettySize=auto;html=1;" edge="1" parent="WIyWlLk6GJQsqaUBKTNV-1" source="7QUO8kgN8gRevv4-HPs5-0" target="WIyWlLk6GJQsqaUBKTNV-3">
          <mxGeometry relative="1" as="geometry" />
        </mxCell>
        <mxCell id="7QUO8kgN8gRevv4-HPs5-0" value="开始" style="strokeWidth=1;html=1;shape=mxgraph.flowchart.terminator;whiteSpace=wrap;" vertex="1" parent="WIyWlLk6GJQsqaUBKTNV-1">
          <mxGeometry x="160" y="-40" width="120" height="40" as="geometry" />
        </mxCell>
        <mxCell id="7QUO8kgN8gRevv4-HPs5-5" value="" style="edgeStyle=orthogonalEdgeStyle;rounded=0;orthogonalLoop=1;jettySize=auto;html=1;" edge="1" parent="WIyWlLk6GJQsqaUBKTNV-1" source="7QUO8kgN8gRevv4-HPs5-2" target="7QUO8kgN8gRevv4-HPs5-4">
          <mxGeometry relative="1" as="geometry" />
        </mxCell>
        <mxCell id="7QUO8kgN8gRevv4-HPs5-52" value="" style="edgeStyle=orthogonalEdgeStyle;rounded=0;orthogonalLoop=1;jettySize=auto;html=1;" edge="1" parent="WIyWlLk6GJQsqaUBKTNV-1" source="7QUO8kgN8gRevv4-HPs5-2" target="7QUO8kgN8gRevv4-HPs5-51">
          <mxGeometry relative="1" as="geometry" />
        </mxCell>
        <mxCell id="7QUO8kgN8gRevv4-HPs5-2" value="ScheduledThreadPool同步任务放入线程池，启动线程" style="rounded=1;whiteSpace=wrap;html=1;fontSize=12;glass=0;strokeWidth=1;shadow=0;" vertex="1" parent="WIyWlLk6GJQsqaUBKTNV-1">
          <mxGeometry x="160" y="200" width="120" height="40" as="geometry" />
        </mxCell>
        <mxCell id="7QUO8kgN8gRevv4-HPs5-11" value="" style="edgeStyle=orthogonalEdgeStyle;rounded=0;orthogonalLoop=1;jettySize=auto;html=1;" edge="1" parent="WIyWlLk6GJQsqaUBKTNV-1" source="7QUO8kgN8gRevv4-HPs5-4" target="7QUO8kgN8gRevv4-HPs5-10">
          <mxGeometry relative="1" as="geometry" />
        </mxCell>
        <mxCell id="7QUO8kgN8gRevv4-HPs5-4" value="启动监听HDFS线程" style="rounded=1;whiteSpace=wrap;html=1;fontSize=12;glass=0;strokeWidth=1;shadow=0;" vertex="1" parent="WIyWlLk6GJQsqaUBKTNV-1">
          <mxGeometry x="160" y="320" width="120" height="40" as="geometry" />
        </mxCell>
        <mxCell id="7QUO8kgN8gRevv4-HPs5-13" value="" style="edgeStyle=orthogonalEdgeStyle;rounded=0;orthogonalLoop=1;jettySize=auto;html=1;" edge="1" parent="WIyWlLk6GJQsqaUBKTNV-1" source="7QUO8kgN8gRevv4-HPs5-10" target="7QUO8kgN8gRevv4-HPs5-12">
          <mxGeometry relative="1" as="geometry" />
        </mxCell>
        <mxCell id="7QUO8kgN8gRevv4-HPs5-10" value="监听table_is_readed/路径下的同步表名文件" style="rounded=1;whiteSpace=wrap;html=1;fontSize=12;glass=0;strokeWidth=1;shadow=0;" vertex="1" parent="WIyWlLk6GJQsqaUBKTNV-1">
          <mxGeometry x="160" y="440" width="120" height="40" as="geometry" />
        </mxCell>
        <mxCell id="7QUO8kgN8gRevv4-HPs5-15" value="" style="edgeStyle=orthogonalEdgeStyle;rounded=0;orthogonalLoop=1;jettySize=auto;html=1;" edge="1" parent="WIyWlLk6GJQsqaUBKTNV-1" source="7QUO8kgN8gRevv4-HPs5-12" target="7QUO8kgN8gRevv4-HPs5-14">
          <mxGeometry relative="1" as="geometry" />
        </mxCell>
        <mxCell id="7QUO8kgN8gRevv4-HPs5-12" value="遍历该路径下的表文件" style="rounded=1;whiteSpace=wrap;html=1;fontSize=12;glass=0;strokeWidth=1;shadow=0;" vertex="1" parent="WIyWlLk6GJQsqaUBKTNV-1">
          <mxGeometry x="160" y="560" width="120" height="40" as="geometry" />
        </mxCell>
        <mxCell id="7QUO8kgN8gRevv4-HPs5-19" value="" style="edgeStyle=orthogonalEdgeStyle;rounded=0;orthogonalLoop=1;jettySize=auto;html=1;" edge="1" parent="WIyWlLk6GJQsqaUBKTNV-1" source="7QUO8kgN8gRevv4-HPs5-14">
          <mxGeometry relative="1" as="geometry">
            <mxPoint x="320" y="700" as="targetPoint" />
          </mxGeometry>
        </mxCell>
        <mxCell id="7QUO8kgN8gRevv4-HPs5-23" value="" style="edgeStyle=orthogonalEdgeStyle;rounded=0;orthogonalLoop=1;jettySize=auto;html=1;" edge="1" parent="WIyWlLk6GJQsqaUBKTNV-1" source="7QUO8kgN8gRevv4-HPs5-14" target="7QUO8kgN8gRevv4-HPs5-20">
          <mxGeometry relative="1" as="geometry" />
        </mxCell>
        <mxCell id="7QUO8kgN8gRevv4-HPs5-14" value="读取文件判断同步标记" style="rhombus;whiteSpace=wrap;html=1;rounded=1;glass=0;strokeWidth=1;shadow=0;" vertex="1" parent="WIyWlLk6GJQsqaUBKTNV-1">
          <mxGeometry x="180" y="660" width="80" height="80" as="geometry" />
        </mxCell>
        <mxCell id="7QUO8kgN8gRevv4-HPs5-24" style="edgeStyle=orthogonalEdgeStyle;rounded=0;orthogonalLoop=1;jettySize=auto;html=1;entryX=0;entryY=0.5;entryDx=0;entryDy=0;dashed=1;dashPattern=1 2;exitX=0;exitY=0.5;exitDx=0;exitDy=0;" edge="1" parent="WIyWlLk6GJQsqaUBKTNV-1" source="7QUO8kgN8gRevv4-HPs5-20" target="7QUO8kgN8gRevv4-HPs5-10">
          <mxGeometry relative="1" as="geometry">
            <Array as="points">
              <mxPoint x="90" y="850" />
              <mxPoint x="90" y="460" />
            </Array>
          </mxGeometry>
        </mxCell>
        <mxCell id="7QUO8kgN8gRevv4-HPs5-20" value="睡眠10分钟" style="rounded=1;whiteSpace=wrap;html=1;fontSize=12;glass=0;strokeWidth=1;shadow=0;" vertex="1" parent="WIyWlLk6GJQsqaUBKTNV-1">
          <mxGeometry x="160" y="830" width="120" height="40" as="geometry" />
        </mxCell>
        <mxCell id="7QUO8kgN8gRevv4-HPs5-21" value="N" style="text;html=1;align=center;verticalAlign=middle;resizable=0;points=[];autosize=1;strokeColor=none;fillColor=none;" vertex="1" parent="WIyWlLk6GJQsqaUBKTNV-1">
          <mxGeometry x="190" y="770" width="30" height="30" as="geometry" />
        </mxCell>
        <mxCell id="7QUO8kgN8gRevv4-HPs5-25" value="Y" style="text;html=1;align=center;verticalAlign=middle;resizable=0;points=[];autosize=1;strokeColor=none;fillColor=none;" vertex="1" parent="WIyWlLk6GJQsqaUBKTNV-1">
          <mxGeometry x="270" y="670" width="30" height="30" as="geometry" />
        </mxCell>
        <mxCell id="7QUO8kgN8gRevv4-HPs5-32" value="" style="edgeStyle=orthogonalEdgeStyle;rounded=0;orthogonalLoop=1;jettySize=auto;html=1;" edge="1" parent="WIyWlLk6GJQsqaUBKTNV-1" source="7QUO8kgN8gRevv4-HPs5-27">
          <mxGeometry relative="1" as="geometry">
            <mxPoint x="360" y="830" as="targetPoint" />
          </mxGeometry>
        </mxCell>
        <mxCell id="7QUO8kgN8gRevv4-HPs5-38" value="" style="edgeStyle=orthogonalEdgeStyle;rounded=0;orthogonalLoop=1;jettySize=auto;html=1;" edge="1" parent="WIyWlLk6GJQsqaUBKTNV-1" source="7QUO8kgN8gRevv4-HPs5-27" target="7QUO8kgN8gRevv4-HPs5-37">
          <mxGeometry relative="1" as="geometry" />
        </mxCell>
        <mxCell id="7QUO8kgN8gRevv4-HPs5-27" value="添加入表同步队列" style="rhombus;whiteSpace=wrap;html=1;rounded=1;glass=0;strokeWidth=1;shadow=0;" vertex="1" parent="WIyWlLk6GJQsqaUBKTNV-1">
          <mxGeometry x="320" y="660" width="80" height="80" as="geometry" />
        </mxCell>
        <mxCell id="7QUO8kgN8gRevv4-HPs5-33" value="表同步队列存在该表" style="text;html=1;align=center;verticalAlign=middle;resizable=0;points=[];autosize=1;strokeColor=none;fillColor=none;" vertex="1" parent="WIyWlLk6GJQsqaUBKTNV-1">
          <mxGeometry x="295" y="770" width="130" height="30" as="geometry" />
        </mxCell>
        <mxCell id="7QUO8kgN8gRevv4-HPs5-35" style="edgeStyle=orthogonalEdgeStyle;rounded=0;orthogonalLoop=1;jettySize=auto;html=1;entryX=0;entryY=0.5;entryDx=0;entryDy=0;exitX=0.5;exitY=1;exitDx=0;exitDy=0;dashed=1;dashPattern=1 2;" edge="1" parent="WIyWlLk6GJQsqaUBKTNV-1" source="7QUO8kgN8gRevv4-HPs5-34" target="7QUO8kgN8gRevv4-HPs5-10">
          <mxGeometry relative="1" as="geometry">
            <Array as="points">
              <mxPoint x="360" y="900" />
              <mxPoint x="90" y="900" />
              <mxPoint x="90" y="460" />
            </Array>
          </mxGeometry>
        </mxCell>
        <mxCell id="7QUO8kgN8gRevv4-HPs5-34" value="给出提示信息" style="rounded=1;whiteSpace=wrap;html=1;fontSize=12;glass=0;strokeWidth=1;shadow=0;" vertex="1" parent="WIyWlLk6GJQsqaUBKTNV-1">
          <mxGeometry x="300" y="830" width="120" height="40" as="geometry" />
        </mxCell>
        <mxCell id="7QUO8kgN8gRevv4-HPs5-41" value="" style="edgeStyle=orthogonalEdgeStyle;rounded=0;orthogonalLoop=1;jettySize=auto;html=1;" edge="1" parent="WIyWlLk6GJQsqaUBKTNV-1" source="7QUO8kgN8gRevv4-HPs5-37">
          <mxGeometry relative="1" as="geometry">
            <mxPoint x="520" y="830" as="targetPoint" />
          </mxGeometry>
        </mxCell>
        <mxCell id="7QUO8kgN8gRevv4-HPs5-46" value="" style="edgeStyle=orthogonalEdgeStyle;rounded=0;orthogonalLoop=1;jettySize=auto;html=1;" edge="1" parent="WIyWlLk6GJQsqaUBKTNV-1" source="7QUO8kgN8gRevv4-HPs5-37" target="7QUO8kgN8gRevv4-HPs5-45">
          <mxGeometry relative="1" as="geometry" />
        </mxCell>
        <mxCell id="7QUO8kgN8gRevv4-HPs5-37" value="同步任务队列是否存在该表" style="rhombus;whiteSpace=wrap;html=1;rounded=1;glass=0;strokeWidth=1;shadow=0;" vertex="1" parent="WIyWlLk6GJQsqaUBKTNV-1">
          <mxGeometry x="480" y="660" width="80" height="80" as="geometry" />
        </mxCell>
        <mxCell id="7QUO8kgN8gRevv4-HPs5-39" value="不存在" style="text;html=1;align=center;verticalAlign=middle;resizable=0;points=[];autosize=1;strokeColor=none;fillColor=none;" vertex="1" parent="WIyWlLk6GJQsqaUBKTNV-1">
          <mxGeometry x="408.5" y="670" width="60" height="30" as="geometry" />
        </mxCell>
        <mxCell id="7QUO8kgN8gRevv4-HPs5-43" style="edgeStyle=orthogonalEdgeStyle;rounded=0;orthogonalLoop=1;jettySize=auto;html=1;entryX=0;entryY=0.5;entryDx=0;entryDy=0;exitX=0.5;exitY=1;exitDx=0;exitDy=0;dashed=1;dashPattern=1 2;" edge="1" parent="WIyWlLk6GJQsqaUBKTNV-1" source="7QUO8kgN8gRevv4-HPs5-42" target="7QUO8kgN8gRevv4-HPs5-10">
          <mxGeometry relative="1" as="geometry">
            <Array as="points">
              <mxPoint x="520" y="900" />
              <mxPoint x="90" y="900" />
              <mxPoint x="90" y="460" />
            </Array>
          </mxGeometry>
        </mxCell>
        <mxCell id="7QUO8kgN8gRevv4-HPs5-42" value="给出提示信息" style="rounded=1;whiteSpace=wrap;html=1;fontSize=12;glass=0;strokeWidth=1;shadow=0;" vertex="1" parent="WIyWlLk6GJQsqaUBKTNV-1">
          <mxGeometry x="460" y="830" width="120" height="40" as="geometry" />
        </mxCell>
        <mxCell id="7QUO8kgN8gRevv4-HPs5-44" value="表同步任务存在该表" style="text;html=1;align=center;verticalAlign=middle;resizable=0;points=[];autosize=1;strokeColor=none;fillColor=none;" vertex="1" parent="WIyWlLk6GJQsqaUBKTNV-1">
          <mxGeometry x="455" y="770" width="130" height="30" as="geometry" />
        </mxCell>
        <mxCell id="7QUO8kgN8gRevv4-HPs5-48" style="edgeStyle=orthogonalEdgeStyle;rounded=0;orthogonalLoop=1;jettySize=auto;html=1;entryX=0;entryY=0.5;entryDx=0;entryDy=0;exitX=0.5;exitY=1;exitDx=0;exitDy=0;dashed=1;dashPattern=1 1;" edge="1" parent="WIyWlLk6GJQsqaUBKTNV-1" source="7QUO8kgN8gRevv4-HPs5-45" target="7QUO8kgN8gRevv4-HPs5-2">
          <mxGeometry relative="1" as="geometry">
            <Array as="points">
              <mxPoint x="680" y="940" />
              <mxPoint x="40" y="940" />
              <mxPoint x="40" y="220" />
            </Array>
          </mxGeometry>
        </mxCell>
        <mxCell id="7QUO8kgN8gRevv4-HPs5-45" value="加入表同步队列" style="whiteSpace=wrap;html=1;rounded=1;glass=0;strokeWidth=1;shadow=0;" vertex="1" parent="WIyWlLk6GJQsqaUBKTNV-1">
          <mxGeometry x="620" y="670" width="120" height="60" as="geometry" />
        </mxCell>
        <mxCell id="7QUO8kgN8gRevv4-HPs5-47" value="不存在" style="text;html=1;align=center;verticalAlign=middle;resizable=0;points=[];autosize=1;strokeColor=none;fillColor=none;" vertex="1" parent="WIyWlLk6GJQsqaUBKTNV-1">
          <mxGeometry x="550" y="670" width="60" height="30" as="geometry" />
        </mxCell>
        <mxCell id="7QUO8kgN8gRevv4-HPs5-54" value="" style="edgeStyle=orthogonalEdgeStyle;rounded=0;orthogonalLoop=1;jettySize=auto;html=1;" edge="1" parent="WIyWlLk6GJQsqaUBKTNV-1" source="7QUO8kgN8gRevv4-HPs5-51">
          <mxGeometry relative="1" as="geometry">
            <mxPoint x="520" y="220" as="targetPoint" />
          </mxGeometry>
        </mxCell>
        <mxCell id="7QUO8kgN8gRevv4-HPs5-61" value="" style="edgeStyle=orthogonalEdgeStyle;rounded=0;orthogonalLoop=1;jettySize=auto;html=1;" edge="1" parent="WIyWlLk6GJQsqaUBKTNV-1" source="7QUO8kgN8gRevv4-HPs5-51" target="7QUO8kgN8gRevv4-HPs5-60">
          <mxGeometry relative="1" as="geometry" />
        </mxCell>
        <mxCell id="7QUO8kgN8gRevv4-HPs5-51" value="表同步队列是否存在需要同步的表" style="rhombus;whiteSpace=wrap;html=1;rounded=1;glass=0;strokeWidth=1;shadow=0;" vertex="1" parent="WIyWlLk6GJQsqaUBKTNV-1">
          <mxGeometry x="380" y="180" width="80" height="80" as="geometry" />
        </mxCell>
        <mxCell id="7QUO8kgN8gRevv4-HPs5-57" style="edgeStyle=orthogonalEdgeStyle;rounded=0;orthogonalLoop=1;jettySize=auto;html=1;entryX=0.5;entryY=0;entryDx=0;entryDy=0;dashed=1;dashPattern=1 1;" edge="1" parent="WIyWlLk6GJQsqaUBKTNV-1" source="7QUO8kgN8gRevv4-HPs5-55" target="7QUO8kgN8gRevv4-HPs5-2">
          <mxGeometry relative="1" as="geometry">
            <Array as="points">
              <mxPoint x="580" y="150" />
              <mxPoint x="220" y="150" />
            </Array>
          </mxGeometry>
        </mxCell>
        <mxCell id="7QUO8kgN8gRevv4-HPs5-55" value="休眠配置时间" style="rounded=1;whiteSpace=wrap;html=1;fontSize=12;glass=0;strokeWidth=1;shadow=0;" vertex="1" parent="WIyWlLk6GJQsqaUBKTNV-1">
          <mxGeometry x="520" y="200" width="120" height="40" as="geometry" />
        </mxCell>
        <mxCell id="7QUO8kgN8gRevv4-HPs5-56" value="否" style="text;html=1;align=center;verticalAlign=middle;resizable=0;points=[];autosize=1;strokeColor=none;fillColor=none;" vertex="1" parent="WIyWlLk6GJQsqaUBKTNV-1">
          <mxGeometry x="470" y="188" width="40" height="30" as="geometry" />
        </mxCell>
        <mxCell id="7QUO8kgN8gRevv4-HPs5-64" value="" style="edgeStyle=orthogonalEdgeStyle;rounded=0;orthogonalLoop=1;jettySize=auto;html=1;" edge="1" parent="WIyWlLk6GJQsqaUBKTNV-1" source="7QUO8kgN8gRevv4-HPs5-60" target="7QUO8kgN8gRevv4-HPs5-63">
          <mxGeometry relative="1" as="geometry" />
        </mxCell>
        <mxCell id="7QUO8kgN8gRevv4-HPs5-60" value="取出需要同步的表名" style="rounded=1;whiteSpace=wrap;html=1;fontSize=12;glass=0;strokeWidth=1;shadow=0;" vertex="1" parent="WIyWlLk6GJQsqaUBKTNV-1">
          <mxGeometry x="360" y="320" width="120" height="40" as="geometry" />
        </mxCell>
        <mxCell id="7QUO8kgN8gRevv4-HPs5-62" value="是" style="text;html=1;align=center;verticalAlign=middle;resizable=0;points=[];autosize=1;strokeColor=none;fillColor=none;" vertex="1" parent="WIyWlLk6GJQsqaUBKTNV-1">
          <mxGeometry x="420" y="268" width="40" height="30" as="geometry" />
        </mxCell>
        <mxCell id="7QUO8kgN8gRevv4-HPs5-66" value="" style="edgeStyle=orthogonalEdgeStyle;rounded=0;orthogonalLoop=1;jettySize=auto;html=1;entryX=0.5;entryY=0;entryDx=0;entryDy=0;dashed=1;dashPattern=1 1;" edge="1" parent="WIyWlLk6GJQsqaUBKTNV-1" source="7QUO8kgN8gRevv4-HPs5-63" target="7QUO8kgN8gRevv4-HPs5-2">
          <mxGeometry relative="1" as="geometry">
            <mxPoint x="550" y="460" as="targetPoint" />
            <Array as="points">
              <mxPoint x="710" y="460" />
              <mxPoint x="710" y="150" />
              <mxPoint x="220" y="150" />
            </Array>
          </mxGeometry>
        </mxCell>
        <mxCell id="7QUO8kgN8gRevv4-HPs5-69" value="" style="edgeStyle=orthogonalEdgeStyle;rounded=0;orthogonalLoop=1;jettySize=auto;html=1;" edge="1" parent="WIyWlLk6GJQsqaUBKTNV-1" source="7QUO8kgN8gRevv4-HPs5-63" target="7QUO8kgN8gRevv4-HPs5-68">
          <mxGeometry relative="1" as="geometry" />
        </mxCell>
        <mxCell id="7QUO8kgN8gRevv4-HPs5-63" value="表名!=null&lt;div&gt;&amp;amp;&amp;amp;&lt;/div&gt;&lt;div&gt;添加同步任务队列成功&lt;/div&gt;" style="rhombus;whiteSpace=wrap;html=1;rounded=1;glass=0;strokeWidth=1;shadow=0;" vertex="1" parent="WIyWlLk6GJQsqaUBKTNV-1">
          <mxGeometry x="380" y="420" width="80" height="80" as="geometry" />
        </mxCell>
        <mxCell id="7QUO8kgN8gRevv4-HPs5-73" value="" style="edgeStyle=orthogonalEdgeStyle;rounded=0;orthogonalLoop=1;jettySize=auto;html=1;" edge="1" parent="WIyWlLk6GJQsqaUBKTNV-1" source="7QUO8kgN8gRevv4-HPs5-68" target="7QUO8kgN8gRevv4-HPs5-72">
          <mxGeometry relative="1" as="geometry" />
        </mxCell>
        <mxCell id="7QUO8kgN8gRevv4-HPs5-68" value="解析table/下的xml配置文件" style="rounded=1;whiteSpace=wrap;html=1;fontSize=12;glass=0;strokeWidth=1;shadow=0;" vertex="1" parent="WIyWlLk6GJQsqaUBKTNV-1">
          <mxGeometry x="360" y="560" width="120" height="40" as="geometry" />
        </mxCell>
        <mxCell id="7QUO8kgN8gRevv4-HPs5-70" value="false" style="text;html=1;align=center;verticalAlign=middle;resizable=0;points=[];autosize=1;strokeColor=none;fillColor=none;" vertex="1" parent="WIyWlLk6GJQsqaUBKTNV-1">
          <mxGeometry x="550" y="430" width="50" height="30" as="geometry" />
        </mxCell>
        <mxCell id="7QUO8kgN8gRevv4-HPs5-71" value="true" style="text;html=1;align=center;verticalAlign=middle;resizable=0;points=[];autosize=1;strokeColor=none;fillColor=none;" vertex="1" parent="WIyWlLk6GJQsqaUBKTNV-1">
          <mxGeometry x="425" y="510" width="40" height="30" as="geometry" />
        </mxCell>
        <mxCell id="7QUO8kgN8gRevv4-HPs5-75" value="" style="edgeStyle=orthogonalEdgeStyle;rounded=0;orthogonalLoop=1;jettySize=auto;html=1;" edge="1" parent="WIyWlLk6GJQsqaUBKTNV-1" source="7QUO8kgN8gRevv4-HPs5-72" target="7QUO8kgN8gRevv4-HPs5-74">
          <mxGeometry relative="1" as="geometry" />
        </mxCell>
        <mxCell id="7QUO8kgN8gRevv4-HPs5-77" value="" style="edgeStyle=orthogonalEdgeStyle;rounded=0;orthogonalLoop=1;jettySize=auto;html=1;" edge="1" parent="WIyWlLk6GJQsqaUBKTNV-1" source="7QUO8kgN8gRevv4-HPs5-72" target="7QUO8kgN8gRevv4-HPs5-76">
          <mxGeometry relative="1" as="geometry" />
        </mxCell>
        <mxCell id="7QUO8kgN8gRevv4-HPs5-72" value="xml文件是否存在" style="rhombus;whiteSpace=wrap;html=1;rounded=1;glass=0;strokeWidth=1;shadow=0;" vertex="1" parent="WIyWlLk6GJQsqaUBKTNV-1">
          <mxGeometry x="790" y="540" width="80" height="80" as="geometry" />
        </mxCell>
        <mxCell id="7QUO8kgN8gRevv4-HPs5-74" value="" style="whiteSpace=wrap;html=1;rounded=1;glass=0;strokeWidth=1;shadow=0;" vertex="1" parent="WIyWlLk6GJQsqaUBKTNV-1">
          <mxGeometry x="990" y="550" width="120" height="60" as="geometry" />
        </mxCell>
        <mxCell id="7QUO8kgN8gRevv4-HPs5-76" value="不存在将该表移出同步任务队列，并删除&lt;div&gt;table_is_readed/下表文件&lt;br&gt;&lt;/div&gt;" style="whiteSpace=wrap;html=1;rounded=1;glass=0;strokeWidth=1;shadow=0;" vertex="1" parent="WIyWlLk6GJQsqaUBKTNV-1">
          <mxGeometry x="770" y="670" width="120" height="60" as="geometry" />
        </mxCell>
        <mxCell id="7QUO8kgN8gRevv4-HPs5-78" value="否" style="text;html=1;align=center;verticalAlign=middle;resizable=0;points=[];autosize=1;strokeColor=none;fillColor=none;" vertex="1" parent="WIyWlLk6GJQsqaUBKTNV-1">
          <mxGeometry x="832" y="620" width="40" height="30" as="geometry" />
        </mxCell>
        <mxCell id="7QUO8kgN8gRevv4-HPs5-79" value="是" style="text;html=1;align=center;verticalAlign=middle;resizable=0;points=[];autosize=1;strokeColor=none;fillColor=none;" vertex="1" parent="WIyWlLk6GJQsqaUBKTNV-1">
          <mxGeometry x="905" y="550" width="40" height="30" as="geometry" />
        </mxCell>
      </root>
    </mxGraphModel>
  </diagram>
</mxfile>
